<mxfile host="app.diagrams.net" agent="Mozilla/5.0 (Windows NT 10.0; Win64; x64) AppleWebKit/537.36 (KHTML, like Gecko) Chrome/127.0.0.0 Safari/537.36" version="24.7.7">
  <diagram id="C5RBs43oDa-KdzZeNtuy" name="Page-1">
    <mxGraphModel dx="1182" dy="683" grid="1" gridSize="10" guides="1" tooltips="1" connect="1" arrows="1" fold="1" page="1" pageScale="1" pageWidth="827" pageHeight="1169" math="0" shadow="0">
      <root>
        <mxCell id="WIyWlLk6GJQsqaUBKTNV-0" />
        <mxCell id="WIyWlLk6GJQsqaUBKTNV-1" parent="WIyWlLk6GJQsqaUBKTNV-0" />
        <mxCell id="JP0azYoQpi_lwUnU7niZ-0" value="Notas&lt;div&gt;&lt;br&gt;&lt;/div&gt;" style="swimlane;fontStyle=1;align=center;verticalAlign=top;childLayout=stackLayout;horizontal=1;startSize=26;horizontalStack=0;resizeParent=1;resizeParentMax=0;resizeLast=0;collapsible=1;marginBottom=0;whiteSpace=wrap;html=1;" parent="WIyWlLk6GJQsqaUBKTNV-1" vertex="1">
          <mxGeometry x="284" y="560" width="260" height="480" as="geometry" />
        </mxCell>
        <mxCell id="JP0azYoQpi_lwUnU7niZ-1" value="- Disciplinas : ArrayList&amp;lt;Disciplinas&amp;gt;;" style="text;strokeColor=none;fillColor=none;align=left;verticalAlign=top;spacingLeft=4;spacingRight=4;overflow=hidden;rotatable=0;points=[[0,0.5],[1,0.5]];portConstraint=eastwest;whiteSpace=wrap;html=1;" parent="JP0azYoQpi_lwUnU7niZ-0" vertex="1">
          <mxGeometry y="26" width="260" height="26" as="geometry" />
        </mxCell>
        <mxCell id="JP0azYoQpi_lwUnU7niZ-2" value="" style="line;strokeWidth=1;fillColor=none;align=left;verticalAlign=middle;spacingTop=-1;spacingLeft=3;spacingRight=3;rotatable=0;labelPosition=right;points=[];portConstraint=eastwest;strokeColor=inherit;" parent="JP0azYoQpi_lwUnU7niZ-0" vertex="1">
          <mxGeometry y="52" width="260" height="8" as="geometry" />
        </mxCell>
        <mxCell id="JP0azYoQpi_lwUnU7niZ-3" value="&lt;div&gt;- AdicionarProvaDisciplina (NomeDisciplina: String, NomeProfessor: String, NomeTurma: String, NomeProva: String, Peso: Float) : Void;&lt;/div&gt;&lt;div&gt;&lt;br&gt;&lt;/div&gt;&lt;div&gt;- AdicionarTrabalhoDisciplina (NomeDisciplina: String,&amp;nbsp;&lt;span style=&quot;background-color: initial;&quot;&gt;NomeProfessor: String, NomeTurma: String,&amp;nbsp;&lt;/span&gt;&lt;span style=&quot;background-color: initial;&quot;&gt;NomeTrabalho: String, Peso: Float) : Void;&lt;/span&gt;&lt;/div&gt;&lt;div&gt;&lt;span style=&quot;background-color: initial;&quot;&gt;&lt;br&gt;&lt;/span&gt;&lt;/div&gt;&lt;div&gt;- AdicionarPontoExtraDisciplina (NomeDisciplina: String,&amp;nbsp;&lt;span style=&quot;background-color: initial;&quot;&gt;NomeProfessor: String, NomeTurma: String,&amp;nbsp;&lt;/span&gt;&lt;span style=&quot;background-color: initial;&quot;&gt;NomePontoExtra: String, ValorMaximo: Float) : Void;&lt;/span&gt;&lt;/div&gt;&lt;div&gt;&lt;br&gt;&lt;/div&gt;&lt;div&gt;- AdicionarNotaProva (&lt;span style=&quot;background-color: initial;&quot;&gt;NomeDisciplina: String,&amp;nbsp;&lt;/span&gt;&lt;span style=&quot;background-color: initial;&quot;&gt;NomeProfessor: String, NomeTurma: String,&amp;nbsp;&lt;/span&gt;&lt;span style=&quot;background-color: initial;&quot;&gt;NomeAluno: String, NomeProva: String, Nota: Float) : Void;&lt;/span&gt;&lt;/div&gt;&lt;div&gt;&lt;br&gt;&lt;/div&gt;&lt;div&gt;- AdicionarNotaTrabalho (&lt;span style=&quot;background-color: initial;&quot;&gt;NomeDisciplina: String,&amp;nbsp;&lt;/span&gt;&lt;span style=&quot;background-color: initial;&quot;&gt;NomeProfessor: String, NomeTurma: String,&amp;nbsp;&lt;/span&gt;&lt;span style=&quot;background-color: initial;&quot;&gt;NomeAluno: String, NomeTrabalho: String, Nota: Float) : Void;&lt;/span&gt;&lt;/div&gt;&lt;div&gt;&lt;span style=&quot;background-color: initial;&quot;&gt;&lt;br&gt;&lt;/span&gt;&lt;/div&gt;&lt;div&gt;&lt;span style=&quot;background-color: initial;&quot;&gt;- AdicionarNotaPontoExtra (&lt;/span&gt;&lt;span style=&quot;background-color: initial;&quot;&gt;NomeDisciplina: String,&amp;nbsp;&lt;/span&gt;&lt;span style=&quot;background-color: initial;&quot;&gt;NomeProfessor: String, NomeTurma: String,&amp;nbsp;&lt;/span&gt;&lt;span style=&quot;background-color: initial;&quot;&gt;NomeAluno: String, NomePontoExtra: String, Nota: Float) : Void;&lt;/span&gt;&lt;/div&gt;&lt;div&gt;&lt;span style=&quot;background-color: initial;&quot;&gt;&lt;br&gt;&lt;/span&gt;&lt;/div&gt;&lt;div&gt;&lt;br&gt;&lt;/div&gt;" style="text;strokeColor=none;fillColor=none;align=left;verticalAlign=top;spacingLeft=4;spacingRight=4;overflow=hidden;rotatable=0;points=[[0,0.5],[1,0.5]];portConstraint=eastwest;whiteSpace=wrap;html=1;" parent="JP0azYoQpi_lwUnU7niZ-0" vertex="1">
          <mxGeometry y="60" width="260" height="420" as="geometry" />
        </mxCell>
        <mxCell id="JP0azYoQpi_lwUnU7niZ-8" style="edgeStyle=none;rounded=0;orthogonalLoop=1;jettySize=auto;html=1;exitX=0.5;exitY=1;exitDx=0;exitDy=0;" parent="WIyWlLk6GJQsqaUBKTNV-1" source="JP0azYoQpi_lwUnU7niZ-4" target="JP0azYoQpi_lwUnU7niZ-0" edge="1">
          <mxGeometry relative="1" as="geometry" />
        </mxCell>
        <mxCell id="JP0azYoQpi_lwUnU7niZ-4" value="Disciplina" style="swimlane;fontStyle=0;childLayout=stackLayout;horizontal=1;startSize=26;fillColor=none;horizontalStack=0;resizeParent=1;resizeParentMax=0;resizeLast=0;collapsible=1;marginBottom=0;whiteSpace=wrap;html=1;" parent="WIyWlLk6GJQsqaUBKTNV-1" vertex="1">
          <mxGeometry x="344" y="320" width="140" height="200" as="geometry">
            <mxRectangle x="344" y="40" width="90" height="30" as="alternateBounds" />
          </mxGeometry>
        </mxCell>
        <mxCell id="JP0azYoQpi_lwUnU7niZ-5" value="- Alunos: ArrayList&amp;lt;Alunos&amp;gt;;&lt;div&gt;- Professor : Professor;&lt;/div&gt;&lt;div&gt;- Turma : Turma;&lt;/div&gt;&lt;div&gt;- Provas : ArrayList&amp;lt;Provas&amp;gt;;&lt;/div&gt;&lt;div&gt;- Trabalhos: ArrayList&amp;lt;Trabalhos&amp;gt;;&lt;/div&gt;&lt;div&gt;- PontosExtra : ArrayList&amp;lt;PontosExtra&amp;gt;;&lt;/div&gt;" style="text;strokeColor=none;fillColor=none;align=left;verticalAlign=top;spacingLeft=4;spacingRight=4;overflow=hidden;rotatable=0;points=[[0,0.5],[1,0.5]];portConstraint=eastwest;whiteSpace=wrap;html=1;" parent="JP0azYoQpi_lwUnU7niZ-4" vertex="1">
          <mxGeometry y="26" width="140" height="174" as="geometry" />
        </mxCell>
        <mxCell id="JP0azYoQpi_lwUnU7niZ-9" value="Prova" style="swimlane;fontStyle=0;childLayout=stackLayout;horizontal=1;startSize=26;fillColor=none;horizontalStack=0;resizeParent=1;resizeParentMax=0;resizeLast=0;collapsible=1;marginBottom=0;whiteSpace=wrap;html=1;" parent="WIyWlLk6GJQsqaUBKTNV-1" vertex="1">
          <mxGeometry x="80" y="140" width="140" height="60" as="geometry" />
        </mxCell>
        <mxCell id="JP0azYoQpi_lwUnU7niZ-10" value="- NomeProva : String;&lt;div&gt;- Peso : Float;&lt;/div&gt;&lt;div&gt;&lt;br&gt;&lt;/div&gt;" style="text;strokeColor=none;fillColor=none;align=left;verticalAlign=top;spacingLeft=4;spacingRight=4;overflow=hidden;rotatable=0;points=[[0,0.5],[1,0.5]];portConstraint=eastwest;whiteSpace=wrap;html=1;" parent="JP0azYoQpi_lwUnU7niZ-9" vertex="1">
          <mxGeometry y="26" width="140" height="34" as="geometry" />
        </mxCell>
        <mxCell id="JP0azYoQpi_lwUnU7niZ-13" value="Trabalho" style="swimlane;fontStyle=0;childLayout=stackLayout;horizontal=1;startSize=26;fillColor=none;horizontalStack=0;resizeParent=1;resizeParentMax=0;resizeLast=0;collapsible=1;marginBottom=0;whiteSpace=wrap;html=1;" parent="WIyWlLk6GJQsqaUBKTNV-1" vertex="1">
          <mxGeometry x="334" y="140" width="160" height="60" as="geometry" />
        </mxCell>
        <mxCell id="JP0azYoQpi_lwUnU7niZ-17" value="PontoExtra" style="swimlane;fontStyle=0;childLayout=stackLayout;horizontal=1;startSize=26;fillColor=none;horizontalStack=0;resizeParent=1;resizeParentMax=0;resizeLast=0;collapsible=1;marginBottom=0;whiteSpace=wrap;html=1;" parent="WIyWlLk6GJQsqaUBKTNV-1" vertex="1">
          <mxGeometry x="600" y="140" width="160" height="60" as="geometry" />
        </mxCell>
        <mxCell id="JP0azYoQpi_lwUnU7niZ-23" style="rounded=0;orthogonalLoop=1;jettySize=auto;html=1;exitX=0;exitY=0.5;exitDx=0;exitDy=0;" parent="JP0azYoQpi_lwUnU7niZ-17" source="JP0azYoQpi_lwUnU7niZ-18" edge="1">
          <mxGeometry relative="1" as="geometry">
            <mxPoint x="-190" y="180" as="targetPoint" />
          </mxGeometry>
        </mxCell>
        <mxCell id="JP0azYoQpi_lwUnU7niZ-18" value="- NomePontoExtra : String;&lt;div&gt;- ValorMaximo : Float;&lt;/div&gt;" style="text;strokeColor=none;fillColor=none;align=left;verticalAlign=top;spacingLeft=4;spacingRight=4;overflow=hidden;rotatable=0;points=[[0,0.5],[1,0.5]];portConstraint=eastwest;whiteSpace=wrap;html=1;" parent="JP0azYoQpi_lwUnU7niZ-17" vertex="1">
          <mxGeometry y="26" width="160" height="34" as="geometry" />
        </mxCell>
        <mxCell id="JP0azYoQpi_lwUnU7niZ-22" style="rounded=0;orthogonalLoop=1;jettySize=auto;html=1;exitX=1;exitY=0.5;exitDx=0;exitDy=0;entryX=0.5;entryY=0;entryDx=0;entryDy=0;" parent="WIyWlLk6GJQsqaUBKTNV-1" source="JP0azYoQpi_lwUnU7niZ-10" target="JP0azYoQpi_lwUnU7niZ-4" edge="1">
          <mxGeometry relative="1" as="geometry">
            <mxPoint x="280" y="280" as="targetPoint" />
          </mxGeometry>
        </mxCell>
        <mxCell id="JP0azYoQpi_lwUnU7niZ-29" style="edgeStyle=none;rounded=0;orthogonalLoop=1;jettySize=auto;html=1;exitX=1;exitY=0.5;exitDx=0;exitDy=0;" parent="WIyWlLk6GJQsqaUBKTNV-1" source="JP0azYoQpi_lwUnU7niZ-14" edge="1">
          <mxGeometry relative="1" as="geometry">
            <mxPoint x="410" y="320" as="targetPoint" />
          </mxGeometry>
        </mxCell>
        <mxCell id="JP0azYoQpi_lwUnU7niZ-30" style="edgeStyle=none;rounded=0;orthogonalLoop=1;jettySize=auto;html=1;exitX=0;exitY=0.5;exitDx=0;exitDy=0;" parent="WIyWlLk6GJQsqaUBKTNV-1" source="JP0azYoQpi_lwUnU7niZ-14" edge="1">
          <mxGeometry relative="1" as="geometry">
            <mxPoint x="410" y="320" as="targetPoint" />
          </mxGeometry>
        </mxCell>
        <mxCell id="JP0azYoQpi_lwUnU7niZ-14" value="- NomeTrabalho : String;&lt;div&gt;- Peso : Float;&lt;/div&gt;&lt;div&gt;&lt;br&gt;&lt;/div&gt;" style="text;strokeColor=none;fillColor=none;align=left;verticalAlign=top;spacingLeft=4;spacingRight=4;overflow=hidden;rotatable=0;points=[[0,0.5],[1,0.5]];portConstraint=eastwest;whiteSpace=wrap;html=1;" parent="WIyWlLk6GJQsqaUBKTNV-1" vertex="1">
          <mxGeometry x="334" y="166" width="160" height="34" as="geometry" />
        </mxCell>
        <mxCell id="UFRYmPmyVataWkC4Lv9d-6" style="edgeStyle=none;rounded=0;orthogonalLoop=1;jettySize=auto;html=1;exitX=0.5;exitY=1;exitDx=0;exitDy=0;entryX=0.5;entryY=0;entryDx=0;entryDy=0;" edge="1" parent="WIyWlLk6GJQsqaUBKTNV-1" source="UFRYmPmyVataWkC4Lv9d-0" target="JP0azYoQpi_lwUnU7niZ-9">
          <mxGeometry relative="1" as="geometry" />
        </mxCell>
        <mxCell id="UFRYmPmyVataWkC4Lv9d-0" value="Avaliacao" style="swimlane;fontStyle=0;childLayout=stackLayout;horizontal=1;startSize=26;fillColor=none;horizontalStack=0;resizeParent=1;resizeParentMax=0;resizeLast=0;collapsible=1;marginBottom=0;whiteSpace=wrap;html=1;" vertex="1" parent="WIyWlLk6GJQsqaUBKTNV-1">
          <mxGeometry x="210" y="20" width="140" height="52" as="geometry" />
        </mxCell>
        <mxCell id="UFRYmPmyVataWkC4Lv9d-1" value="- Peso : Float;" style="text;strokeColor=none;fillColor=none;align=left;verticalAlign=top;spacingLeft=4;spacingRight=4;overflow=hidden;rotatable=0;points=[[0,0.5],[1,0.5]];portConstraint=eastwest;whiteSpace=wrap;html=1;" vertex="1" parent="UFRYmPmyVataWkC4Lv9d-0">
          <mxGeometry y="26" width="140" height="26" as="geometry" />
        </mxCell>
        <mxCell id="UFRYmPmyVataWkC4Lv9d-5" style="edgeStyle=none;rounded=0;orthogonalLoop=1;jettySize=auto;html=1;exitX=0.5;exitY=1;exitDx=0;exitDy=0;entryX=0.546;entryY=0.061;entryDx=0;entryDy=0;entryPerimeter=0;" edge="1" parent="WIyWlLk6GJQsqaUBKTNV-1" source="UFRYmPmyVataWkC4Lv9d-0" target="JP0azYoQpi_lwUnU7niZ-13">
          <mxGeometry relative="1" as="geometry" />
        </mxCell>
      </root>
    </mxGraphModel>
  </diagram>
</mxfile>
